<svg width="510" height="510" viewBox="0 0 510 510" fill="none" xmlns="http://www.w3.org/2000/svg">
<path d="M230 14.4338C245.47 5.50211 264.53 5.50212 280 14.4338L450.836 113.066C466.307 121.998 475.836 138.504 475.836 156.368V353.633C475.836 371.496 466.307 388.002 450.836 396.934L280 495.566C264.53 504.498 245.47 504.498 230 495.566L59.1635 396.934C43.6935 388.002 34.1635 371.496 34.1635 353.632V156.368C34.1635 138.504 43.6935 121.998 59.1635 113.066L230 14.4338Z" fill="#EDE8F3"/>
<path d="M90.0935 262.985H107.043C107.043 262.985 112.316 263.787 112.693 267.797C113.07 271.806 112.58 323.971 112.58 323.971L146.593 323.53C146.593 323.53 149.983 324.733 149.983 328.743C149.983 332.752 147.346 334.356 147.346 334.356L95.6681 334.115L90.0935 262.985Z" fill="#BAC6F2"/>
<path d="M90.0935 262.985C90.0935 262.985 85.1969 263.787 84.8202 271.806C84.4436 279.826 84.8202 333.955 84.8202 333.955L136.46 334.356C137.214 334.356 137.929 334.035 138.419 333.434C139.172 332.552 140.189 331.188 140.189 329.945C140.189 327.78 139.436 324.332 135.293 324.332C131.15 324.332 96.1201 323.931 96.1201 323.931L95.3667 267.797C95.3667 267.837 95.3667 263.787 90.0935 262.985Z" fill="#B1C1F2"/>
<path d="M111.714 334.236C111.714 334.236 110.81 338.766 113.823 338.766H118.72C119.096 338.766 120.716 336.361 119.699 334.356C118.682 332.351 111.714 334.236 111.714 334.236Z" fill="#BAC6F2"/>
<path d="M113.823 338.807L114.2 384.075H117.59L117.778 338.526L113.823 338.807Z" fill="#E9EDFA"/>
<path d="M99.8867 383.273L132.28 383.674V386.882L99.8867 386.481V383.273Z" fill="#E9EDFA"/>
<path d="M163.919 387.283L162.412 303.482H170.322L169.946 387.283H163.919Z" fill="white"/>
<path d="M336.053 303.883H344.716L341.703 387.684L336.053 388.085V303.883Z" fill="white"/>
<path d="M156.386 289.048L156.762 302.681L348.483 303.883L348.709 288.647L156.386 289.048Z" fill="#E9EDFA"/>
<path d="M144.709 281.43L360.159 282.232V289.85L145.086 289.449L144.709 281.43Z" fill="#BAC6F2"/>
<path d="M189.457 159.458L189.72 236.362L390.669 236.041V160.059L189.457 159.458Z" fill="white"/>
<path d="M225.39 183.516V192.978L307.691 192.577V183.516H225.39Z" fill="#BAC6F2"/>
<path d="M225.39 209.858V219.321L307.691 218.92V209.858H225.39Z" fill="#BAC6F2"/>
<path d="M211.491 196.266C214.903 196.266 217.668 193.322 217.668 189.69C217.668 186.059 214.903 183.115 211.491 183.115C208.08 183.115 205.314 186.059 205.314 189.69C205.314 193.322 208.08 196.266 211.491 196.266Z" fill="#BAC6F2"/>
<path d="M211.491 220.845C214.903 220.845 217.668 217.901 217.668 214.269C217.668 210.637 214.903 207.693 211.491 207.693C208.08 207.693 205.314 210.637 205.314 214.269C205.314 217.901 208.08 220.845 211.491 220.845Z" fill="#BAC6F2"/>
<path d="M379.03 193.86H330.177V219.241H379.03V193.86Z" fill="#E9EDFA"/>
<path d="M329.386 218.038C329.386 218.038 333.19 209.177 336.806 210.139C340.422 211.101 341.326 215.151 344.038 213.427C346.75 211.703 348.521 204.726 351.157 203.604C354.924 202.04 356.167 203.764 361.252 206.851C366.337 209.939 368.484 209.257 370.555 206.972C372.476 204.887 376.017 199.233 379.934 196.707" stroke="#BAC6F2" stroke-width="0.679234" stroke-linecap="round" stroke-linejoin="round"/>
<path d="M173.788 160.46H101.092V234.036H173.788V160.46Z" fill="white"/>
<path d="M136.498 225.015C146.879 225.015 155.294 216.057 155.294 205.007C155.294 193.957 146.879 184.999 136.498 184.999C126.118 184.999 117.703 193.957 117.703 205.007C117.703 216.057 126.118 225.015 136.498 225.015Z" stroke="#BAC6F2" stroke-width="1.35847" stroke-linecap="round" stroke-linejoin="round"/>
<path d="M124.37 166.835H105.876V171.487H124.37V166.835Z" fill="#BAC6F2"/>
<path d="M124.37 174.133H105.876V178.784H124.37V174.133Z" fill="#BAC6F2"/>
<path d="M159.926 269.481H217.292C217.292 269.481 219.439 269.361 219.439 266.714V261.462H157.666V267.837C157.968 268.84 158.872 269.521 159.926 269.481Z" fill="#BAC5F4"/>
<path d="M157.666 221.767L157.629 263.466L219.439 262.865V220.564C219.439 220.564 219.815 218.158 217.405 218.158H160.002C160.002 218.158 157.403 218.158 157.666 221.767Z" fill="#BAC5F4"/>
<path d="M183.656 280.668V269.08L192.696 269.481V279.665L183.656 280.668Z" fill="#BAC5F4"/>
<path d="M169.305 279.505H206.858L206.896 281.51H169.305V279.505Z" fill="#BAC5F4"/>
<path d="M187.988 264.309C189.005 264.309 189.796 265.151 189.796 266.233C189.796 267.316 189.005 268.158 187.988 268.158C186.971 268.158 186.18 267.316 186.18 266.233C186.18 265.151 187.008 264.309 187.988 264.309Z" fill="white"/>
<path d="M217.555 220.163H159.55V260.66H217.555V220.163Z" fill="#F8F8FF"/>
<path d="M162.45 222.248C162.94 222.248 163.354 222.689 163.354 223.21C163.354 223.732 162.94 224.173 162.45 224.173C161.96 224.173 161.546 223.732 161.546 223.21C161.546 222.689 161.96 222.248 162.45 222.248Z" fill="#FA5F5D"/>
<path d="M165.539 222.248C166.028 222.248 166.442 222.689 166.442 223.21C166.442 223.732 166.028 224.173 165.539 224.173C165.049 224.173 164.635 223.732 164.635 223.21C164.635 222.689 165.049 222.248 165.539 222.248Z" fill="#FDBC4E"/>
<path d="M168.778 222.248C169.267 222.248 169.682 222.689 169.682 223.21C169.682 223.732 169.267 224.173 168.778 224.173C168.288 224.173 167.874 223.732 167.874 223.21C167.874 222.689 168.288 222.248 168.778 222.248Z" fill="#37CD58"/>
<path d="M181.396 229.305C181.358 229.826 180.944 230.227 180.454 230.187H169.343C168.778 230.187 168.213 229.786 168.213 229.305V227.501C168.213 227.019 168.74 226.578 169.343 226.578H180.417C180.906 226.538 181.358 226.939 181.396 227.461V227.501V229.305Z" fill="url(#paint0_linear_1271_10502)"/>
<path d="M208.139 241.253C208.101 241.815 207.649 242.256 207.122 242.216H169.343C168.778 242.216 168.213 241.775 168.213 241.253V232.352C168.213 231.831 168.778 231.39 169.343 231.39H207.122C207.649 231.35 208.101 231.791 208.139 232.352V241.253Z" fill="#FE6700"/>
<path d="M180.643 248.871C180.643 249.393 180.228 249.834 179.739 249.834H169.343C168.74 249.834 168.213 249.393 168.213 248.871V243.98C168.213 243.458 168.778 243.017 169.343 243.017H179.663C180.153 242.977 180.605 243.378 180.643 243.94V243.98V248.871Z" fill="#FE6700"/>
<path d="M194.203 248.871C194.203 249.393 193.788 249.834 193.299 249.834H182.903C182.3 249.834 181.773 249.393 181.773 248.871V243.98C181.773 243.458 182.338 243.017 182.903 243.017H193.223C193.713 242.977 194.165 243.378 194.203 243.94V243.98V248.871Z" fill="#FE6700"/>
<path d="M208.139 248.871C208.101 249.433 207.649 249.874 207.122 249.834H196.801C196.236 249.874 195.784 249.433 195.709 248.871V243.98C195.747 243.378 196.236 242.977 196.801 243.017H207.122C207.649 242.977 208.139 243.418 208.176 243.98L208.139 248.871Z" fill="#FE6700"/>
<path d="M194.203 251.638C194.127 251.839 193.977 251.959 193.788 251.999C193.751 251.999 193.751 251.999 193.713 251.839H182.338C182.112 251.999 181.773 251.839 181.773 251.638V251.478C181.773 251.277 182.112 251.077 182.338 251.037H193.713C193.901 251.077 194.014 251.237 194.052 251.397C194.052 251.438 194.052 251.438 194.165 251.478L194.203 251.638Z" fill="#E9EDFB"/>
<path d="M194.203 253.202C194.127 253.402 193.977 253.563 193.788 253.603C193.788 253.603 193.751 253.603 193.751 253.443H182.338C182.112 253.603 181.773 253.443 181.773 253.202V253.042C181.773 252.841 182.112 252.681 182.338 252.641H193.713C193.901 252.681 194.09 252.841 194.165 253.042L194.203 253.202Z" fill="#E9EDFB"/>
<path d="M194.203 254.806C194.127 255.047 193.939 255.207 193.751 255.247C193.751 255.167 193.751 255.127 193.751 255.047H182.338C182.149 255.167 181.923 255.127 181.81 254.926C181.773 254.886 181.773 254.846 181.773 254.806V254.646C181.773 254.445 182.112 254.325 182.338 254.245H193.713C193.901 254.285 194.09 254.445 194.165 254.646L194.203 254.806Z" fill="#E9EDFB"/>
<path d="M194.203 256.37C194.09 256.61 193.939 256.851 193.751 257.051H182.338C182.112 256.851 181.773 256.61 181.773 256.37V256.209C181.773 256.009 182.112 255.768 182.338 255.848H193.713C193.864 255.808 194.014 255.929 194.052 256.089C194.052 256.129 194.052 256.169 194.052 256.209C194.052 256.209 194.052 256.209 194.165 256.249L194.203 256.37Z" fill="#E9EDFB"/>
<path d="M187.875 257.973C187.875 258.174 187.762 258.254 187.536 258.254H182.3C182.074 258.254 181.773 258.174 181.773 257.973V257.813C181.773 257.613 182.074 257.452 182.3 257.452H187.536C187.724 257.452 187.875 257.613 187.875 257.813V257.973Z" fill="#E9EDFB"/>
<path d="M208.139 251.638C207.913 251.839 207.95 251.999 207.724 251.839H196.349C196.161 251.999 195.973 251.879 195.973 251.678C195.973 251.678 195.973 251.678 196.086 251.638V251.478C195.973 251.277 196.123 251.077 196.349 251.037H207.724C207.95 251.117 207.913 251.277 208.139 251.478V251.638Z" fill="#E9EDFB"/>
<path d="M208.139 253.202C207.913 253.402 207.951 253.603 207.725 253.443H196.349C196.123 253.603 195.973 253.443 196.086 253.202V253.042C195.973 252.841 196.123 252.681 196.349 252.641H207.725C207.951 252.721 207.913 252.841 208.139 253.042V253.202Z" fill="#E9EDFB"/>
<path d="M208.139 254.806C207.913 255.006 207.951 255.247 207.725 255.047H196.349C196.123 255.207 195.973 255.047 196.086 254.806V254.646C195.973 254.445 196.123 254.325 196.349 254.245H207.725C207.951 254.325 207.913 254.445 208.139 254.646V254.806Z" fill="#E9EDFB"/>
<path d="M208.139 256.369C207.913 256.57 207.951 256.851 207.725 257.051H196.349C196.123 256.81 195.973 256.61 196.086 256.369V256.209C196.01 256.129 196.01 255.968 196.086 255.888C196.161 255.848 196.236 255.808 196.312 255.848H207.725C207.951 255.768 207.913 256.009 208.139 256.209V256.369Z" fill="#E9EDFB"/>
<path d="M201.886 257.973C201.886 258.174 201.886 258.254 201.698 258.254H196.425C196.199 258.254 196.086 258.174 196.086 257.973V257.813C196.086 257.613 196.236 257.452 196.425 257.452H201.66C201.886 257.452 201.849 257.613 201.849 257.813L201.886 257.973Z" fill="#E9EDFB"/>
<path d="M180.266 251.638C180.417 251.839 180.341 251.999 180.115 251.839H168.703C168.552 251.959 168.364 251.919 168.288 251.798C168.251 251.758 168.251 251.718 168.213 251.638V251.478C168.288 251.237 168.477 251.077 168.703 251.037H180.078C180.304 251.117 180.379 251.277 180.228 251.478L180.266 251.638Z" fill="#E9EDFB"/>
<path d="M180.266 253.202C180.417 253.402 180.341 253.603 180.115 253.443H168.703C168.477 253.643 168.288 253.443 168.213 253.202V253.042C168.251 252.841 168.477 252.681 168.703 252.641H180.078C180.304 252.721 180.379 252.841 180.228 253.042L180.266 253.202Z" fill="#E9EDFB"/>
<path d="M180.266 254.806C180.417 255.006 180.341 255.247 180.115 255.047H168.703C168.477 255.247 168.288 255.047 168.213 254.806V254.646C168.251 254.445 168.477 254.325 168.703 254.245H180.078C180.304 254.325 180.379 254.445 180.228 254.646L180.266 254.806Z" fill="#E9EDFB"/>
<path d="M176.876 255.848H180.115C180.341 255.768 180.417 256.009 180.266 256.209V256.37C180.417 256.57 180.341 256.851 180.115 257.051H168.703C168.477 256.891 168.326 256.65 168.213 256.37V256.209C168.251 255.969 168.477 255.808 168.703 255.848H176.876Z" fill="#E9EDFB"/>
<path d="M174.616 257.973C174.616 258.174 174.503 258.254 174.277 258.254H168.627C168.401 258.254 168.213 258.174 168.213 257.973V257.813C168.251 257.613 168.439 257.452 168.627 257.452H174.277C174.465 257.452 174.616 257.613 174.616 257.773C174.616 257.773 174.616 257.773 174.616 257.813V257.973Z" fill="#E9EDFB"/>
<path d="M356.43 403.641C355.413 399.07 355.074 393.216 354.396 393.096H353.643L346.449 393.176C346.449 393.176 344.942 400.474 344.189 403.521C344.113 403.722 344 404.243 343.85 404.604C343.699 405.125 343.699 405.686 343.699 406.208C343.85 408.974 344.867 411.34 347.164 412.583C349.763 413.946 351.722 415.269 354.358 412.583C357.033 409.856 357.447 408.212 356.43 403.641Z" fill="#4B44BE"/>
<path d="M333.642 393.818L324.527 394.339C324.527 394.339 320.911 400.995 315.638 402.599C310.666 404.122 302.455 407.811 306.108 409.896C308.82 411.58 326.373 410.057 330.629 410.418C333.831 410.698 334.697 408.613 334.358 404.042C334.132 400.594 333.642 393.818 333.642 393.818Z" fill="#4B44BE"/>
<path d="M322.719 272.688C322.719 272.688 316.617 326.216 316.203 329.705C315.789 333.193 318.312 351.036 318.312 354.444C318.312 357.852 324.301 394.379 324.301 394.379L333.831 393.938C333.831 393.938 331.91 340.17 332.136 337.564C332.324 334.957 342.758 303.763 342.758 303.763C342.758 303.763 343.511 312.022 343.511 314.629C343.511 317.235 346.373 393.297 346.373 393.297H354.66L366.412 281.269L366.223 279.104L322.719 272.688Z" fill="url(#paint1_linear_1271_10502)"/>
<path d="M350.705 169.281C350.705 169.281 341.59 173.05 339.556 173.892C337.522 174.774 336.354 177.421 336.354 177.421C336.354 177.421 335.337 176.779 335.337 178.583C335.337 180.388 336.166 184.518 336.844 185.6C337.936 187.405 338.878 189.209 339.782 191.093C340.611 192.978 340.309 196.867 339.443 197.469C338.577 198.03 323.209 212.825 323.209 212.825L310.402 254.725L312.097 267.957L314.696 280.988C314.696 280.988 314.169 281.91 315.224 283.033C316.316 284.116 320.949 292.215 320.949 292.215L322.531 280.266L317.295 262.544L315.45 247.628L327.691 221.005L370.103 229.024L374.736 258.053L366.148 282.793L364.641 294.861L371.836 288.125C372.25 287.764 373.041 285.88 373.455 284.878L377.749 272.007L380.951 251.438C380.951 251.438 354.17 200.075 352.814 197.028C352.212 195.664 352.89 192.336 353.229 190.652C353.568 189.129 354.246 187.164 354.924 186.603C355.941 185.44 356.43 183.796 356.694 182.272C356.694 181.19 357.108 176.98 356.091 178.022C355.903 178.303 355.15 177.02 354.811 175.336C354.17 172.89 352.551 170.845 350.705 169.281Z" fill="url(#paint2_linear_1271_10502)"/>
<path d="M347.24 211.182C346.562 211.823 345.545 211.743 344.942 211.102C344.452 210.3 344 209.498 343.661 208.696C342.983 207.252 337.748 199.073 337.748 199.073C337.748 199.073 325.318 202.481 323.322 203.844C321.288 205.288 319.442 207.252 318.764 209.778C318.086 212.304 308.481 242.055 308.029 243.86C307.54 245.664 305.091 248.551 306.259 255.889C307.427 263.226 313.868 281.951 314.546 282.151C315.223 282.352 322.079 278.743 322.079 278.743C322.079 278.743 316.655 255.447 316.655 253.122C316.655 250.796 321.551 244.221 323.51 239.73C325.469 235.239 326.9 231.35 327.578 229.385C328.256 227.421 321.74 268.118 321.74 268.118C321.74 268.118 321.589 275.495 322.907 276.217C324.113 276.859 338.727 282.793 342.155 284.196C342.494 284.357 342.908 284.116 343.096 283.755L345.281 277.179C345.281 277.099 345.356 277.019 345.432 277.099C345.507 277.099 345.507 277.179 345.507 277.179L347.541 284.357C347.616 284.717 348.031 284.918 348.37 284.878L366.374 280.748C366.374 280.748 366.11 245.383 366.449 239.449C366.713 233.675 366.035 230.388 367.052 231.991C368.144 233.716 372.702 249.634 372.702 252.32C372.702 255.006 367.617 278.503 367.617 278.503L374.359 282.472C374.359 282.472 383.474 256.65 383.926 253.242C384.416 249.834 384.604 248.03 383.098 244.622C381.591 241.213 373.305 210.34 373.305 210.34C373.305 210.34 372.476 206.571 366.374 204.606C360.272 202.641 355.715 199.754 354.622 199.835C353.53 199.915 350.14 206.691 348.633 208.736C347.918 209.498 348.068 209.859 347.24 211.182Z" fill="url(#paint3_linear_1271_10502)"/>
<path d="M350.63 169.321C350.63 169.321 340.347 173.291 338.275 174.975C336.693 176.218 336.354 177.381 336.354 177.381C336.354 177.381 335.262 176.859 335.337 178.543C335.412 180.227 334.132 175.937 333.755 174.574C333.492 173.211 333.416 169.362 336.203 166.555C338.991 163.748 342.042 161.623 344.641 161.783C347.24 161.944 349.349 162.706 351.383 164.831C353.417 166.916 353.907 166.795 354.321 166.996C354.735 167.196 356.844 169.602 357.108 172.208C357.372 174.815 356.618 178.664 356.618 178.664C356.618 178.664 356.129 178.102 355.601 178.503C355.074 178.904 354.924 176.058 353.153 172.489C351.873 169.843 350.63 169.321 350.63 169.321Z" fill="url(#paint4_linear_1271_10502)"/>
<path opacity="0.07" d="M344.113 298.27C342.946 301.878 338.388 308.975 335.413 313.265C332.437 317.516 323.246 326.497 323.849 337.443C324.452 348.389 330.629 376.537 330.629 379.063C330.629 381.589 328.331 393.537 326.561 397.226C324.791 400.915 323.962 407.491 324.866 407.491C326.486 407.41 328.181 407.21 329.838 406.769C331.345 406.408 332.814 406.047 334.245 405.526C334.848 405.245 334.998 403.12 334.998 403.12C335.074 402.238 334.923 401.316 334.735 400.514C334.32 399.151 333.981 397.747 333.793 396.384C333.454 386.119 332.588 362.303 332.776 360.619C333.115 357.491 330.742 341.814 332.927 334.075C335.074 326.377 344.113 298.27 344.113 298.27Z" fill="black"/>
<path opacity="0.07" d="M322.079 278.743L320.497 291.614C320.497 291.614 322.079 294.3 322.531 292.055C323.02 289.81 326.26 285.6 324.226 282.592C322.192 279.585 322.079 278.743 322.079 278.743Z" fill="black"/>
<path opacity="0.07" d="M366.261 282.312L365.734 288.446L365.056 294.38C365.056 294.38 362.758 296.185 362.796 293.859C362.871 291.534 358.916 288.085 361.929 285.76C364.943 283.434 366.261 282.312 366.261 282.312Z" fill="black"/>
<path opacity="0.07" d="M337.672 199.153C338.087 199.073 335.714 199.714 337.823 198.992C341.439 197.749 339.932 190.532 339.932 190.532C339.932 190.532 340.271 193.219 343.661 194.301C347.051 195.384 347.955 194.582 342.833 197.108C337.748 199.634 340.384 200.516 340.723 203.844" fill="black"/>
<path opacity="0.07" d="M327.465 231.871L321.74 268.759C321.74 268.759 321.815 275.335 322.907 276.297C324 277.219 327.653 277.901 328.482 278.543C329.311 279.184 338.124 282.312 335.827 277.019C335.3 275.856 323.397 268.759 328.708 261.301C334.019 253.844 333.04 243.579 330.554 236.402C329.047 232.192 328.294 227.701 328.52 223.25L327.465 231.871Z" fill="black"/>
<defs>
<linearGradient id="paint0_linear_1271_10502" x1="168.204" y1="228.376" x2="181.387" y2="228.376" gradientUnits="userSpaceOnUse">
<stop stop-color="#F71D69"/>
<stop offset="1" stop-color="#F8C648"/>
</linearGradient>
<linearGradient id="paint1_linear_1271_10502" x1="316.136" y1="333.526" x2="366.347" y2="333.526" gradientUnits="userSpaceOnUse">
<stop stop-color="#4B45BD"/>
<stop offset="1" stop-color="#58CAEA"/>
</linearGradient>
<linearGradient id="paint2_linear_1271_10502" x1="310.403" y1="232.077" x2="380.962" y2="232.077" gradientUnits="userSpaceOnUse">
<stop stop-color="#F87B58"/>
<stop offset="0.41" stop-color="#F89453"/>
<stop offset="0.71" stop-color="#F8C548"/>
<stop offset="1" stop-color="#F89C51"/>
</linearGradient>
<linearGradient id="paint3_linear_1271_10502" x1="305.95" y1="241.961" x2="384.351" y2="241.961" gradientUnits="userSpaceOnUse">
<stop offset="0.892878" stop-color="#FE6700"/>
<stop offset="1" stop-color="white"/>
</linearGradient>
<linearGradient id="paint4_linear_1271_10502" x1="333.662" y1="170.323" x2="357.238" y2="170.323" gradientUnits="userSpaceOnUse">
<stop stop-color="#4B45BD"/>
<stop offset="1" stop-color="#58CAEA"/>
</linearGradient>
</defs>
</svg>
