<svg width="1373" height="646" viewBox="0 0 1373 646" fill="none" xmlns="http://www.w3.org/2000/svg">
<g filter="url(#filter0_d_1274_10682)">
<path fill-rule="evenodd" clip-rule="evenodd" d="M184.722 20C173.676 20 164.722 28.9543 164.722 40V45.8405L103.015 46.0921C95.1427 46.1242 88.7683 52.9188 88.7382 61.3102C88.7077 69.7929 95.1667 76.6776 103.125 76.6451L147.863 76.4627C155.026 76.4335 160.839 82.6304 160.812 90.2655C160.785 97.8185 155.047 103.934 147.961 103.963L54.2771 104.345C46.4047 104.377 40.0302 111.172 40.0001 119.563C39.9697 128.046 46.4287 134.931 54.3868 134.898L80.9915 134.79C88.386 134.76 94.3876 141.157 94.3593 149.039L94.3581 149.355C94.3308 156.977 88.541 163.149 81.3906 163.178C74.2402 163.207 68.4504 169.378 68.4231 177L68.4181 178.39C68.3876 186.873 74.8466 193.758 82.8048 193.725L164.722 193.391V566C164.722 577.046 173.676 586 184.722 586H1174.72C1185.77 586 1194.72 577.046 1194.72 566V534.563L1269.36 534.258C1277.24 534.226 1283.61 527.432 1283.64 519.04C1283.67 510.558 1277.21 503.673 1269.26 503.705L1224.52 503.888C1217.35 503.917 1211.54 497.72 1211.57 490.085C1211.6 482.532 1217.33 476.416 1224.42 476.387L1318.1 476.005C1325.98 475.973 1332.35 469.179 1332.38 460.787C1332.41 452.305 1325.95 445.42 1317.99 445.452L1291.39 445.561C1283.99 445.591 1277.99 439.194 1278.02 431.312L1278.02 430.995C1278.05 423.373 1283.84 417.202 1290.99 417.173C1298.14 417.144 1303.93 410.972 1303.96 403.351L1303.96 401.96C1303.99 393.477 1297.53 386.593 1289.58 386.625L1194.72 387.012V40C1194.72 28.9543 1185.77 20 1174.72 20H184.722Z" fill="#EDE8F3"/>
</g>
<defs>
<filter id="filter0_d_1274_10682" x="0" y="0" width="1372.38" height="646" filterUnits="userSpaceOnUse" color-interpolation-filters="sRGB">
<feFlood flood-opacity="0" result="BackgroundImageFix"/>
<feColorMatrix in="SourceAlpha" type="matrix" values="0 0 0 0 0 0 0 0 0 0 0 0 0 0 0 0 0 0 127 0" result="hardAlpha"/>
<feOffset dy="20"/>
<feGaussianBlur stdDeviation="20"/>
<feComposite in2="hardAlpha" operator="out"/>
<feColorMatrix type="matrix" values="0 0 0 0 0 0 0 0 0 0 0 0 0 0 0 0 0 0 0.15 0"/>
<feBlend mode="normal" in2="BackgroundImageFix" result="effect1_dropShadow_1274_10682"/>
<feBlend mode="normal" in="SourceGraphic" in2="effect1_dropShadow_1274_10682" result="shape"/>
</filter>
</defs>
</svg>
