<svg width="1387" height="1020" viewBox="0 0 1387 1020" fill="none" xmlns="http://www.w3.org/2000/svg">
<path fill-rule="evenodd" clip-rule="evenodd" d="M607.991 818.501C600.003 810.941 600.003 798.224 607.991 790.664L802.824 606.246C810.214 599.251 821.783 599.251 829.173 606.246V606.246C837.161 613.807 837.161 626.524 829.173 634.084L787.14 673.87C779.951 680.675 779.951 692.121 787.14 698.925V698.925C793.792 705.222 804.205 705.222 810.857 698.925L895.578 618.733C902.969 611.738 914.537 611.738 921.928 618.733V618.733C929.915 626.293 929.915 639.01 921.928 646.571L897.322 669.861C889.9 676.886 889.9 688.702 897.322 695.727V695.727C904.189 702.227 914.939 702.227 921.806 695.727L931.706 686.357C939.096 679.361 950.665 679.361 958.055 686.357V686.357C966.042 693.917 966.042 706.634 958.055 714.194L721.743 937.873C714.353 944.868 702.784 944.868 695.394 937.873L693.253 935.847C686.428 929.387 686.428 918.521 693.253 912.062V912.062C700.078 905.602 700.078 894.736 693.253 888.276L692.154 887.236C685.286 880.736 674.537 880.736 667.67 887.236L640.112 913.32C632.722 920.315 621.153 920.315 613.763 913.32V913.32C605.776 905.76 605.776 893.043 613.763 885.482L703.225 800.803C710.414 793.998 710.414 782.552 703.225 775.747V775.747C696.574 769.451 686.161 769.451 679.509 775.747L634.34 818.501C626.95 825.496 615.381 825.496 607.991 818.501V818.501Z" fill="#FFE9E9"/>
<path fill-rule="evenodd" clip-rule="evenodd" d="M246.2 -19.0289C254.701 -10.6521 254.701 3.06182 246.2 11.4386L33.2584 221.264C24.9326 229.468 11.5625 229.468 3.23669 221.264V221.264C-5.26451 212.887 -5.26451 199.173 3.23669 190.797L50.3382 144.384C57.9899 136.845 57.9899 124.501 50.3382 116.961V116.961C42.8445 109.577 30.8105 109.577 23.3168 116.961L-68.1169 207.057C-76.4427 215.261 -89.8127 215.261 -98.1386 207.057V207.057C-106.64 198.68 -106.64 184.966 -98.1386 176.59L-70.0664 148.928C-62.1671 141.145 -62.1671 128.402 -70.0664 120.618V120.618C-77.8028 112.995 -90.2263 112.995 -97.9626 120.618L-107.602 130.116C-115.928 138.32 -129.298 138.32 -137.624 130.116V130.116C-146.125 121.74 -146.125 108.026 -137.624 99.6489L120.651 -154.847C128.977 -163.051 142.347 -163.051 150.673 -154.847L152.401 -153.144C159.952 -145.704 159.952 -133.523 152.401 -126.082V-126.082C144.85 -118.642 144.85 -106.461 152.401 -99.02L153.034 -98.3959C160.771 -90.7727 173.194 -90.7727 180.931 -98.3959L209.869 -126.911C218.195 -135.115 231.565 -135.115 239.891 -126.911V-126.911C248.392 -118.534 248.392 -104.821 239.891 -96.4437L140.951 1.04816C133.3 8.58783 133.3 20.9312 140.951 28.4709V28.4709C148.445 35.855 160.479 35.855 167.973 28.4709L216.178 -19.0289C224.504 -27.2329 237.874 -27.2329 246.2 -19.0289V-19.0289Z" fill="#FFE9E9"/>
<path fill-rule="evenodd" clip-rule="evenodd" d="M537.159 767.616C531.614 762.028 531.614 753.013 537.159 747.425L678.263 605.237C683.869 599.588 693.004 599.588 698.609 605.237V605.237C704.155 610.825 704.155 619.839 698.609 625.427L666.969 657.311C661.977 662.341 661.977 670.455 666.969 675.485V675.485C672.014 680.569 680.236 680.569 685.282 675.485L745.44 614.864C751.046 609.215 760.18 609.215 765.786 614.864V614.864C771.331 620.452 771.331 629.467 765.786 635.055L746.747 654.239C741.595 659.432 741.595 667.808 746.747 673V673C751.956 678.249 760.444 678.249 765.652 673L771.604 667.003C777.21 661.354 786.344 661.354 791.95 667.003V667.003C797.495 672.591 797.495 681.605 791.95 687.193L620.805 859.653C615.199 865.302 606.065 865.302 600.459 859.653L599.54 858.727C594.504 853.652 594.504 845.464 599.54 840.388V840.388C604.577 835.313 604.577 827.125 599.54 822.049L599.331 821.838C594.122 816.59 585.635 816.59 580.426 821.838L561.686 840.723C556.08 846.371 546.946 846.371 541.34 840.723V840.723C535.795 835.135 535.795 826.12 541.34 820.532L607.331 754.034C612.322 749.004 612.322 740.89 607.331 735.86V735.86C602.285 730.776 594.064 730.776 589.018 735.86L557.505 767.616C551.899 773.265 542.765 773.265 537.159 767.616V767.616Z" fill="#FF6826"/>
<path fill-rule="evenodd" clip-rule="evenodd" d="M-94.841 877.616C-100.386 872.028 -100.386 863.013 -94.841 857.425L46.2635 715.237C51.8692 709.588 61.0036 709.588 66.6093 715.237V715.237C72.1547 720.825 72.1547 729.839 66.6093 735.427L34.9685 767.311C29.9772 772.341 29.9772 780.455 34.9685 785.485V785.485C40.0141 790.569 48.2359 790.569 53.2815 785.485L113.44 724.864C119.046 719.215 128.18 719.215 133.786 724.864V724.864C139.331 730.452 139.331 739.467 133.786 745.055L114.747 764.239C109.595 769.432 109.595 777.808 114.747 783V783C119.956 788.249 128.444 788.249 133.652 783L139.604 777.003C145.21 771.354 154.344 771.354 159.95 777.003V777.003C165.495 782.591 165.495 791.605 159.95 797.193L-11.1949 969.653C-16.8006 975.302 -25.935 975.302 -31.5407 969.653L-32.4596 968.727C-37.4964 963.652 -37.4964 955.464 -32.4596 950.388V950.388C-27.4229 945.313 -27.4229 937.125 -32.4596 932.049L-32.669 931.838C-37.8777 926.59 -46.3652 926.59 -51.5739 931.838L-70.3142 950.723C-75.9199 956.371 -85.0543 956.371 -90.66 950.723V950.723C-96.2054 945.135 -96.2054 936.12 -90.66 930.532L-24.6689 864.034C-19.6776 859.004 -19.6776 850.89 -24.6689 845.86V845.86C-29.7145 840.776 -37.9363 840.776 -42.9819 845.86L-74.4951 877.616C-80.1008 883.265 -89.2353 883.265 -94.841 877.616V877.616Z" fill="#FFE9E9"/>
<path fill-rule="evenodd" clip-rule="evenodd" d="M224.484 38.3194C221.172 34.8058 221.172 29.3203 224.484 25.8067L312.081 -67.1346C315.681 -70.9551 321.756 -70.9551 325.357 -67.1346V-67.1346C328.668 -63.621 328.668 -58.1355 325.357 -54.6219L305.101 -33.1305C302.12 -29.9679 302.12 -25.0305 305.101 -21.8679V-21.8679C308.342 -18.4291 313.81 -18.4291 317.051 -21.8679L353.783 -60.8416C357.384 -64.6621 363.459 -64.6621 367.06 -60.8416V-60.8416C370.371 -57.328 370.371 -51.8424 367.06 -48.3288L354.618 -35.1284C351.541 -31.8636 351.541 -26.7666 354.618 -23.5018V-23.5018C357.964 -19.9519 363.608 -19.9519 366.954 -23.5018L370.026 -26.7612C373.627 -30.5817 379.701 -30.5817 383.302 -26.7612V-26.7612C386.614 -23.2476 386.614 -17.7621 383.302 -14.2485L277.056 98.4795C273.456 102.3 267.381 102.3 263.78 98.4795L263.533 98.2168C260.36 94.8507 260.36 89.5955 263.533 86.2295L263.703 86.0491C266.78 82.7844 266.78 77.6873 263.703 74.4226V74.4226C260.357 70.8726 254.712 70.8726 251.367 74.4226L240.355 86.1057C236.755 89.9262 230.68 89.9262 227.079 86.1057V86.1057C223.768 82.5921 223.768 77.1065 227.079 73.5929L268.66 29.4758C271.64 26.3132 271.64 21.3757 268.66 18.2132V18.2132C265.419 14.7744 259.951 14.7744 256.71 18.2132L237.76 38.3194C234.159 42.1399 228.084 42.1399 224.484 38.3194V38.3194Z" fill="#FF6826"/>
<line x1="963.646" y1="757.657" x2="898.657" y2="822.646" stroke="black" stroke-width="8" stroke-linecap="round"/>
<line x1="53.6458" y1="318.657" x2="-11.3432" y2="383.646" stroke="black" stroke-width="8" stroke-linecap="round"/>
<line x1="958" y1="793.657" x2="939.657" y2="812" stroke="black" stroke-width="8" stroke-linecap="round"/>
<circle cx="1377.63" cy="539.192" r="8.80767" transform="rotate(-180 1377.63 539.192)" fill="#FFE9E9"/>
<circle cx="1377.63" cy="503.961" r="8.80767" transform="rotate(-180 1377.63 503.961)" fill="#FFE9E9"/>
<circle cx="1348.81" cy="503.961" r="8.80767" transform="rotate(-180 1348.81 503.961)" fill="#FFE9E9"/>
<circle cx="1348.81" cy="468.73" r="8.80767" transform="rotate(-180 1348.81 468.73)" fill="#FFE9E9"/>
<circle cx="1348.81" cy="433.5" r="8.80767" transform="rotate(-180 1348.81 433.5)" fill="#FFE9E9"/>
<circle cx="1348.81" cy="398.269" r="8.80767" transform="rotate(-180 1348.81 398.269)" fill="#FFE9E9"/>
<circle cx="1348.81" cy="363.038" r="8.80767" transform="rotate(-180 1348.81 363.038)" fill="#FFE9E9"/>
<circle cx="1377.63" cy="468.73" r="8.80767" transform="rotate(-180 1377.63 468.73)" fill="#FFE9E9"/>
<circle cx="1377.63" cy="433.5" r="8.80767" transform="rotate(-180 1377.63 433.5)" fill="#FFE9E9"/>
<circle cx="1377.63" cy="398.269" r="8.80767" transform="rotate(-180 1377.63 398.269)" fill="#FFE9E9"/>
<circle cx="1377.63" cy="363.038" r="8.80767" transform="rotate(-180 1377.63 363.038)" fill="#FFE9E9"/>
<circle cx="1377.63" cy="327.808" r="8.80767" transform="rotate(-180 1377.63 327.808)" fill="#FFE9E9"/>
<circle cx="326.239" cy="874.157" r="114" transform="rotate(-90 326.239 874.157)" stroke="#FFE9E9" stroke-width="63"/>
<line x1="339.646" y1="121.657" x2="274.657" y2="186.646" stroke="black" stroke-width="8" stroke-linecap="round"/>
<line x1="334" y1="157.657" x2="315.657" y2="176" stroke="black" stroke-width="8" stroke-linecap="round"/>
</svg>
