<svg width="1375" height="638" viewBox="0 0 1375 638" fill="none" xmlns="http://www.w3.org/2000/svg">
<path fill-rule="evenodd" clip-rule="evenodd" d="M1234.16 166.616C1228.61 161.028 1228.61 152.013 1234.16 146.425L1375.26 4.23658C1380.87 -1.41219 1390 -1.41219 1395.61 4.23658V4.23658C1401.15 9.82455 1401.15 18.8394 1395.61 24.4273L1363.97 56.3112C1358.98 61.3409 1358.98 69.4549 1363.97 74.4846V74.4846C1369.01 79.569 1377.24 79.569 1382.28 74.4846L1442.44 13.8641C1448.05 8.21534 1457.18 8.21534 1462.79 13.8641V13.8641C1468.33 19.4521 1468.33 28.4669 1462.79 34.0548L1443.75 53.2393C1438.59 58.4315 1438.59 66.8079 1443.75 72.0001V72.0001C1448.96 77.2488 1457.44 77.2488 1462.65 72.0001L1468.6 66.0027C1474.21 60.3539 1483.34 60.3539 1488.95 66.0027V66.0027C1494.5 71.5906 1494.5 80.6054 1488.95 86.1934L1317.81 258.653C1312.2 264.302 1303.07 264.302 1297.46 258.653L1296.54 257.727C1291.5 252.652 1291.5 244.464 1296.54 239.388V239.388C1301.58 234.313 1301.58 226.125 1296.54 221.049L1296.33 220.838C1291.12 215.59 1282.63 215.59 1277.43 220.838L1258.69 239.723C1253.08 245.371 1243.95 245.371 1238.34 239.723V239.723C1232.79 234.135 1232.79 225.12 1238.34 219.532L1304.33 153.034C1309.32 148.004 1309.32 139.89 1304.33 134.86V134.86C1299.29 129.776 1291.06 129.776 1286.02 134.86L1254.5 166.616C1248.9 172.265 1239.76 172.265 1234.16 166.616V166.616Z" fill="#FF6826"/>
<path d="M230 213.432C230 208.775 226.222 204.985 221.568 205.145C163.631 207.144 108.507 229.684 67.3654 268.411C24.2321 309.013 4.60536e-06 364.081 0 421.5C-4.60536e-06 478.919 24.2321 533.987 67.3654 574.589C108.507 613.316 163.631 635.856 221.568 637.855C226.222 638.015 230 634.225 230 629.568V629.568C230 624.912 226.222 621.153 221.569 620.979C168.384 618.989 117.815 598.229 80.0332 562.664C40.2595 525.225 17.9149 474.447 17.9149 421.5C17.9149 368.553 40.2595 317.775 80.0332 280.336C117.815 244.771 168.384 224.011 221.569 222.021C226.222 221.847 230 218.088 230 213.432V213.432Z" fill="#FE6700"/>
</svg>
