<svg width="160" height="263" viewBox="0 0 160 263" fill="none" xmlns="http://www.w3.org/2000/svg">
<path fill-rule="evenodd" clip-rule="evenodd" d="M-99.841 166.616C-105.386 161.028 -105.386 152.013 -99.841 146.425L41.2635 4.23658C46.8692 -1.41219 56.0036 -1.41219 61.6093 4.23658C67.1547 9.82455 67.1547 18.8393 61.6093 24.4273L29.9685 56.3112C24.9772 61.3409 24.9772 69.4549 29.9685 74.4846C35.0141 79.569 43.2359 79.569 48.2815 74.4846L108.44 13.8641C114.046 8.21534 123.18 8.21534 128.786 13.8641C134.331 19.4521 134.331 28.4669 128.786 34.0548L109.747 53.2393C104.595 58.4315 104.595 66.8079 109.747 72.0001C114.956 77.2488 123.444 77.2488 128.652 72.0001L134.604 66.0027C140.21 60.3539 149.344 60.3539 154.95 66.0027C160.495 71.5906 160.495 80.6054 154.95 86.1934L-16.1949 258.653C-21.8006 264.302 -30.935 264.302 -36.5407 258.653L-37.4596 257.727C-42.4963 252.652 -42.4963 244.464 -37.4596 239.388C-32.4229 234.313 -32.4229 226.125 -37.4596 221.049L-37.669 220.838C-42.8777 215.59 -51.3652 215.59 -56.5739 220.838L-75.3142 239.723C-80.9199 245.371 -90.0543 245.371 -95.66 239.723C-101.205 234.135 -101.205 225.12 -95.66 219.532L-29.6689 153.034C-24.6776 148.004 -24.6776 139.89 -29.6689 134.86C-34.7145 129.776 -42.9363 129.776 -47.9819 134.86L-79.4951 166.616C-85.1008 172.265 -94.2353 172.265 -99.841 166.616Z" fill="#FF6826"/>
</svg>
